<mxfile host="app.diagrams.net" agent="Mozilla/5.0 (Windows NT 10.0; Win64; x64) AppleWebKit/537.36 (KHTML, like Gecko) Chrome/131.0.0.0 Safari/537.36" version="25.0.3">
  <diagram name="PÃ¡gina-1" id="7TOvYfbNBFij4DYAWl01">
    <mxGraphModel dx="1173" dy="579" grid="1" gridSize="10" guides="1" tooltips="1" connect="1" arrows="1" fold="1" page="1" pageScale="1" pageWidth="827" pageHeight="1169" math="0" shadow="0">
      <root>
        <mxCell id="0" />
        <mxCell id="1" parent="0" />
        <mxCell id="KdWxlv0j1vEyBBXF1PyD-23" style="edgeStyle=orthogonalEdgeStyle;rounded=0;orthogonalLoop=1;jettySize=auto;html=1;exitX=0.5;exitY=1;exitDx=0;exitDy=0;exitPerimeter=0;entryX=0.5;entryY=0;entryDx=0;entryDy=0;" edge="1" parent="1" source="KdWxlv0j1vEyBBXF1PyD-1" target="KdWxlv0j1vEyBBXF1PyD-3">
          <mxGeometry relative="1" as="geometry" />
        </mxCell>
        <mxCell id="KdWxlv0j1vEyBBXF1PyD-1" value="INICIO" style="strokeWidth=2;html=1;shape=mxgraph.flowchart.start_2;whiteSpace=wrap;" vertex="1" parent="1">
          <mxGeometry x="364" y="10" width="70" height="70" as="geometry" />
        </mxCell>
        <mxCell id="KdWxlv0j1vEyBBXF1PyD-2" value="FIM" style="strokeWidth=2;html=1;shape=mxgraph.flowchart.start_2;whiteSpace=wrap;" vertex="1" parent="1">
          <mxGeometry x="364" y="1070" width="70" height="70" as="geometry" />
        </mxCell>
        <mxCell id="KdWxlv0j1vEyBBXF1PyD-3" value="DIGITE A CIDADE&lt;div&gt;&amp;nbsp;[VITORIA, MURIAE, NITEROI, PIRACICABA]&lt;/div&gt;" style="shape=parallelogram;html=1;strokeWidth=2;perimeter=parallelogramPerimeter;whiteSpace=wrap;rounded=1;arcSize=12;size=0.23;" vertex="1" parent="1">
          <mxGeometry x="208.25" y="100" width="381.5" height="70" as="geometry" />
        </mxCell>
        <mxCell id="KdWxlv0j1vEyBBXF1PyD-28" style="edgeStyle=orthogonalEdgeStyle;rounded=0;orthogonalLoop=1;jettySize=auto;html=1;exitX=1;exitY=0.5;exitDx=0;exitDy=0;exitPerimeter=0;entryX=0;entryY=0.5;entryDx=0;entryDy=0;" edge="1" parent="1" source="KdWxlv0j1vEyBBXF1PyD-4" target="KdWxlv0j1vEyBBXF1PyD-8">
          <mxGeometry relative="1" as="geometry" />
        </mxCell>
        <mxCell id="KdWxlv0j1vEyBBXF1PyD-29" value="SIM" style="edgeLabel;html=1;align=center;verticalAlign=middle;resizable=0;points=[];" vertex="1" connectable="0" parent="KdWxlv0j1vEyBBXF1PyD-28">
          <mxGeometry x="-0.058" y="2" relative="1" as="geometry">
            <mxPoint as="offset" />
          </mxGeometry>
        </mxCell>
        <mxCell id="KdWxlv0j1vEyBBXF1PyD-4" value="CIDADE = VITORIA" style="strokeWidth=2;html=1;shape=mxgraph.flowchart.decision;whiteSpace=wrap;" vertex="1" parent="1">
          <mxGeometry x="334" y="190" width="130" height="130" as="geometry" />
        </mxCell>
        <mxCell id="KdWxlv0j1vEyBBXF1PyD-26" style="edgeStyle=orthogonalEdgeStyle;rounded=0;orthogonalLoop=1;jettySize=auto;html=1;exitX=0.5;exitY=1;exitDx=0;exitDy=0;exitPerimeter=0;" edge="1" parent="1" source="KdWxlv0j1vEyBBXF1PyD-5" target="KdWxlv0j1vEyBBXF1PyD-6">
          <mxGeometry relative="1" as="geometry" />
        </mxCell>
        <mxCell id="KdWxlv0j1vEyBBXF1PyD-30" style="edgeStyle=orthogonalEdgeStyle;rounded=0;orthogonalLoop=1;jettySize=auto;html=1;exitX=1;exitY=0.5;exitDx=0;exitDy=0;exitPerimeter=0;entryX=0;entryY=0.5;entryDx=0;entryDy=0;" edge="1" parent="1" source="KdWxlv0j1vEyBBXF1PyD-5" target="KdWxlv0j1vEyBBXF1PyD-9">
          <mxGeometry relative="1" as="geometry" />
        </mxCell>
        <mxCell id="KdWxlv0j1vEyBBXF1PyD-31" value="SIM" style="edgeLabel;html=1;align=center;verticalAlign=middle;resizable=0;points=[];" vertex="1" connectable="0" parent="KdWxlv0j1vEyBBXF1PyD-30">
          <mxGeometry x="-0.1739" y="1" relative="1" as="geometry">
            <mxPoint as="offset" />
          </mxGeometry>
        </mxCell>
        <mxCell id="KdWxlv0j1vEyBBXF1PyD-46" style="edgeStyle=orthogonalEdgeStyle;rounded=0;orthogonalLoop=1;jettySize=auto;html=1;exitX=0;exitY=0.5;exitDx=0;exitDy=0;exitPerimeter=0;" edge="1" parent="1" source="KdWxlv0j1vEyBBXF1PyD-5" target="KdWxlv0j1vEyBBXF1PyD-17">
          <mxGeometry relative="1" as="geometry" />
        </mxCell>
        <mxCell id="KdWxlv0j1vEyBBXF1PyD-47" value="NAO" style="edgeLabel;html=1;align=center;verticalAlign=middle;resizable=0;points=[];" vertex="1" connectable="0" parent="KdWxlv0j1vEyBBXF1PyD-46">
          <mxGeometry x="-0.0404" y="1" relative="1" as="geometry">
            <mxPoint as="offset" />
          </mxGeometry>
        </mxCell>
        <mxCell id="KdWxlv0j1vEyBBXF1PyD-5" value="CIDADE = MURIAE" style="strokeWidth=2;html=1;shape=mxgraph.flowchart.decision;whiteSpace=wrap;" vertex="1" parent="1">
          <mxGeometry x="334" y="340" width="130" height="130" as="geometry" />
        </mxCell>
        <mxCell id="KdWxlv0j1vEyBBXF1PyD-32" style="edgeStyle=orthogonalEdgeStyle;rounded=0;orthogonalLoop=1;jettySize=auto;html=1;exitX=1;exitY=0.5;exitDx=0;exitDy=0;exitPerimeter=0;entryX=0;entryY=0.5;entryDx=0;entryDy=0;" edge="1" parent="1" source="KdWxlv0j1vEyBBXF1PyD-6" target="KdWxlv0j1vEyBBXF1PyD-10">
          <mxGeometry relative="1" as="geometry" />
        </mxCell>
        <mxCell id="KdWxlv0j1vEyBBXF1PyD-33" value="SIM" style="edgeLabel;html=1;align=center;verticalAlign=middle;resizable=0;points=[];" vertex="1" connectable="0" parent="KdWxlv0j1vEyBBXF1PyD-32">
          <mxGeometry y="7" relative="1" as="geometry">
            <mxPoint as="offset" />
          </mxGeometry>
        </mxCell>
        <mxCell id="KdWxlv0j1vEyBBXF1PyD-48" style="edgeStyle=orthogonalEdgeStyle;rounded=0;orthogonalLoop=1;jettySize=auto;html=1;exitX=0;exitY=0.5;exitDx=0;exitDy=0;exitPerimeter=0;" edge="1" parent="1" source="KdWxlv0j1vEyBBXF1PyD-6" target="KdWxlv0j1vEyBBXF1PyD-18">
          <mxGeometry relative="1" as="geometry" />
        </mxCell>
        <mxCell id="KdWxlv0j1vEyBBXF1PyD-49" value="NAO" style="edgeLabel;html=1;align=center;verticalAlign=middle;resizable=0;points=[];" vertex="1" connectable="0" parent="KdWxlv0j1vEyBBXF1PyD-48">
          <mxGeometry x="-0.0192" y="1" relative="1" as="geometry">
            <mxPoint as="offset" />
          </mxGeometry>
        </mxCell>
        <mxCell id="KdWxlv0j1vEyBBXF1PyD-6" value="CIDADE = NITEROI" style="strokeWidth=2;html=1;shape=mxgraph.flowchart.decision;whiteSpace=wrap;" vertex="1" parent="1">
          <mxGeometry x="334" y="490" width="130" height="130" as="geometry" />
        </mxCell>
        <mxCell id="KdWxlv0j1vEyBBXF1PyD-34" style="edgeStyle=orthogonalEdgeStyle;rounded=0;orthogonalLoop=1;jettySize=auto;html=1;exitX=1;exitY=0.5;exitDx=0;exitDy=0;exitPerimeter=0;entryX=0;entryY=0.5;entryDx=0;entryDy=0;" edge="1" parent="1" source="KdWxlv0j1vEyBBXF1PyD-7" target="KdWxlv0j1vEyBBXF1PyD-11">
          <mxGeometry relative="1" as="geometry" />
        </mxCell>
        <mxCell id="KdWxlv0j1vEyBBXF1PyD-35" value="SIM" style="edgeLabel;html=1;align=center;verticalAlign=middle;resizable=0;points=[];" vertex="1" connectable="0" parent="KdWxlv0j1vEyBBXF1PyD-34">
          <mxGeometry x="0.1159" y="3" relative="1" as="geometry">
            <mxPoint as="offset" />
          </mxGeometry>
        </mxCell>
        <mxCell id="KdWxlv0j1vEyBBXF1PyD-7" value="CIDADE = PIRACICABA" style="strokeWidth=2;html=1;shape=mxgraph.flowchart.decision;whiteSpace=wrap;" vertex="1" parent="1">
          <mxGeometry x="334" y="640" width="130" height="130" as="geometry" />
        </mxCell>
        <mxCell id="KdWxlv0j1vEyBBXF1PyD-8" value="CUSTO DO ALUGUEL = 949 * 2.20" style="rounded=1;whiteSpace=wrap;html=1;absoluteArcSize=1;arcSize=14;strokeWidth=2;" vertex="1" parent="1">
          <mxGeometry x="510" y="217.5" width="190" height="75" as="geometry" />
        </mxCell>
        <mxCell id="KdWxlv0j1vEyBBXF1PyD-9" value="CUSTO DO ALUGUEL = 628 * 2.20" style="rounded=1;whiteSpace=wrap;html=1;absoluteArcSize=1;arcSize=14;strokeWidth=2;" vertex="1" parent="1">
          <mxGeometry x="510" y="367.5" width="190" height="75" as="geometry" />
        </mxCell>
        <mxCell id="KdWxlv0j1vEyBBXF1PyD-10" value="CUSTO DO ALUGUEL = 424 * 2.20" style="rounded=1;whiteSpace=wrap;html=1;absoluteArcSize=1;arcSize=14;strokeWidth=2;" vertex="1" parent="1">
          <mxGeometry x="510" y="517.5" width="190" height="75" as="geometry" />
        </mxCell>
        <mxCell id="KdWxlv0j1vEyBBXF1PyD-11" value="CUSTO DO ALUGUEL = 168 * 2.20" style="rounded=1;whiteSpace=wrap;html=1;absoluteArcSize=1;arcSize=14;strokeWidth=2;" vertex="1" parent="1">
          <mxGeometry x="510" y="667.5" width="190" height="75" as="geometry" />
        </mxCell>
        <mxCell id="KdWxlv0j1vEyBBXF1PyD-12" value="" style="strokeWidth=2;html=1;shape=mxgraph.flowchart.start_2;whiteSpace=wrap;" vertex="1" parent="1">
          <mxGeometry x="730" y="230" width="50" height="50" as="geometry" />
        </mxCell>
        <mxCell id="KdWxlv0j1vEyBBXF1PyD-41" style="edgeStyle=orthogonalEdgeStyle;rounded=0;orthogonalLoop=1;jettySize=auto;html=1;exitX=0.5;exitY=1;exitDx=0;exitDy=0;exitPerimeter=0;" edge="1" parent="1" source="KdWxlv0j1vEyBBXF1PyD-13" target="KdWxlv0j1vEyBBXF1PyD-14">
          <mxGeometry relative="1" as="geometry" />
        </mxCell>
        <mxCell id="KdWxlv0j1vEyBBXF1PyD-13" value="" style="strokeWidth=2;html=1;shape=mxgraph.flowchart.start_2;whiteSpace=wrap;" vertex="1" parent="1">
          <mxGeometry x="730" y="380" width="50" height="50" as="geometry" />
        </mxCell>
        <mxCell id="KdWxlv0j1vEyBBXF1PyD-14" value="" style="strokeWidth=2;html=1;shape=mxgraph.flowchart.start_2;whiteSpace=wrap;" vertex="1" parent="1">
          <mxGeometry x="730" y="530" width="50" height="50" as="geometry" />
        </mxCell>
        <mxCell id="KdWxlv0j1vEyBBXF1PyD-15" value="" style="strokeWidth=2;html=1;shape=mxgraph.flowchart.start_2;whiteSpace=wrap;" vertex="1" parent="1">
          <mxGeometry x="730" y="680" width="50" height="50" as="geometry" />
        </mxCell>
        <mxCell id="KdWxlv0j1vEyBBXF1PyD-16" value="" style="strokeWidth=2;html=1;shape=mxgraph.flowchart.start_2;whiteSpace=wrap;" vertex="1" parent="1">
          <mxGeometry x="158.25" y="230" width="50" height="50" as="geometry" />
        </mxCell>
        <mxCell id="KdWxlv0j1vEyBBXF1PyD-17" value="" style="strokeWidth=2;html=1;shape=mxgraph.flowchart.start_2;whiteSpace=wrap;" vertex="1" parent="1">
          <mxGeometry x="158.25" y="380" width="50" height="50" as="geometry" />
        </mxCell>
        <mxCell id="KdWxlv0j1vEyBBXF1PyD-18" value="" style="strokeWidth=2;html=1;shape=mxgraph.flowchart.start_2;whiteSpace=wrap;" vertex="1" parent="1">
          <mxGeometry x="158.25" y="530" width="50" height="50" as="geometry" />
        </mxCell>
        <mxCell id="KdWxlv0j1vEyBBXF1PyD-19" value="" style="strokeWidth=2;html=1;shape=mxgraph.flowchart.start_2;whiteSpace=wrap;" vertex="1" parent="1">
          <mxGeometry x="158.25" y="680" width="50" height="50" as="geometry" />
        </mxCell>
        <mxCell id="KdWxlv0j1vEyBBXF1PyD-20" value="CIDADE&lt;div&gt;DISTANCIA&lt;/div&gt;&lt;div&gt;CUSTO DO ALUGUEL&lt;/div&gt;" style="strokeWidth=2;html=1;shape=mxgraph.flowchart.display;whiteSpace=wrap;" vertex="1" parent="1">
          <mxGeometry x="520" y="820" width="166.67" height="100" as="geometry" />
        </mxCell>
        <mxCell id="KdWxlv0j1vEyBBXF1PyD-21" value="CIDADE NAO ATENDIDA PELA EMPRESA" style="strokeWidth=2;html=1;shape=mxgraph.flowchart.display;whiteSpace=wrap;" vertex="1" parent="1">
          <mxGeometry x="208.25" y="820" width="166.67" height="100" as="geometry" />
        </mxCell>
        <mxCell id="KdWxlv0j1vEyBBXF1PyD-22" value="" style="strokeWidth=2;html=1;shape=mxgraph.flowchart.start_2;whiteSpace=wrap;" vertex="1" parent="1">
          <mxGeometry x="374" y="960" width="50" height="50" as="geometry" />
        </mxCell>
        <mxCell id="KdWxlv0j1vEyBBXF1PyD-24" style="edgeStyle=orthogonalEdgeStyle;rounded=0;orthogonalLoop=1;jettySize=auto;html=1;exitX=0.5;exitY=1;exitDx=0;exitDy=0;entryX=0.5;entryY=0;entryDx=0;entryDy=0;entryPerimeter=0;" edge="1" parent="1" source="KdWxlv0j1vEyBBXF1PyD-3" target="KdWxlv0j1vEyBBXF1PyD-4">
          <mxGeometry relative="1" as="geometry" />
        </mxCell>
        <mxCell id="KdWxlv0j1vEyBBXF1PyD-25" style="edgeStyle=orthogonalEdgeStyle;rounded=0;orthogonalLoop=1;jettySize=auto;html=1;exitX=0.5;exitY=1;exitDx=0;exitDy=0;exitPerimeter=0;entryX=0.5;entryY=0;entryDx=0;entryDy=0;entryPerimeter=0;" edge="1" parent="1" source="KdWxlv0j1vEyBBXF1PyD-4" target="KdWxlv0j1vEyBBXF1PyD-5">
          <mxGeometry relative="1" as="geometry" />
        </mxCell>
        <mxCell id="KdWxlv0j1vEyBBXF1PyD-27" style="edgeStyle=orthogonalEdgeStyle;rounded=0;orthogonalLoop=1;jettySize=auto;html=1;exitX=0.5;exitY=1;exitDx=0;exitDy=0;exitPerimeter=0;entryX=0.49;entryY=0.069;entryDx=0;entryDy=0;entryPerimeter=0;" edge="1" parent="1" source="KdWxlv0j1vEyBBXF1PyD-6" target="KdWxlv0j1vEyBBXF1PyD-7">
          <mxGeometry relative="1" as="geometry" />
        </mxCell>
        <mxCell id="KdWxlv0j1vEyBBXF1PyD-36" style="edgeStyle=orthogonalEdgeStyle;rounded=0;orthogonalLoop=1;jettySize=auto;html=1;exitX=1;exitY=0.5;exitDx=0;exitDy=0;entryX=0;entryY=0.5;entryDx=0;entryDy=0;entryPerimeter=0;" edge="1" parent="1" source="KdWxlv0j1vEyBBXF1PyD-8" target="KdWxlv0j1vEyBBXF1PyD-12">
          <mxGeometry relative="1" as="geometry" />
        </mxCell>
        <mxCell id="KdWxlv0j1vEyBBXF1PyD-37" style="edgeStyle=orthogonalEdgeStyle;rounded=0;orthogonalLoop=1;jettySize=auto;html=1;exitX=1;exitY=0.5;exitDx=0;exitDy=0;entryX=0;entryY=0.5;entryDx=0;entryDy=0;entryPerimeter=0;" edge="1" parent="1" source="KdWxlv0j1vEyBBXF1PyD-9" target="KdWxlv0j1vEyBBXF1PyD-13">
          <mxGeometry relative="1" as="geometry" />
        </mxCell>
        <mxCell id="KdWxlv0j1vEyBBXF1PyD-38" style="edgeStyle=orthogonalEdgeStyle;rounded=0;orthogonalLoop=1;jettySize=auto;html=1;exitX=1;exitY=0.5;exitDx=0;exitDy=0;entryX=0;entryY=0.5;entryDx=0;entryDy=0;entryPerimeter=0;" edge="1" parent="1" source="KdWxlv0j1vEyBBXF1PyD-10" target="KdWxlv0j1vEyBBXF1PyD-14">
          <mxGeometry relative="1" as="geometry" />
        </mxCell>
        <mxCell id="KdWxlv0j1vEyBBXF1PyD-39" style="edgeStyle=orthogonalEdgeStyle;rounded=0;orthogonalLoop=1;jettySize=auto;html=1;exitX=1;exitY=0.5;exitDx=0;exitDy=0;entryX=0;entryY=0.5;entryDx=0;entryDy=0;entryPerimeter=0;" edge="1" parent="1" source="KdWxlv0j1vEyBBXF1PyD-11" target="KdWxlv0j1vEyBBXF1PyD-15">
          <mxGeometry relative="1" as="geometry" />
        </mxCell>
        <mxCell id="KdWxlv0j1vEyBBXF1PyD-40" style="edgeStyle=orthogonalEdgeStyle;rounded=0;orthogonalLoop=1;jettySize=auto;html=1;exitX=0.5;exitY=1;exitDx=0;exitDy=0;exitPerimeter=0;entryX=0.5;entryY=0;entryDx=0;entryDy=0;entryPerimeter=0;" edge="1" parent="1" source="KdWxlv0j1vEyBBXF1PyD-12" target="KdWxlv0j1vEyBBXF1PyD-13">
          <mxGeometry relative="1" as="geometry" />
        </mxCell>
        <mxCell id="KdWxlv0j1vEyBBXF1PyD-42" style="edgeStyle=orthogonalEdgeStyle;rounded=0;orthogonalLoop=1;jettySize=auto;html=1;exitX=0.5;exitY=1;exitDx=0;exitDy=0;exitPerimeter=0;entryX=0.5;entryY=0;entryDx=0;entryDy=0;entryPerimeter=0;" edge="1" parent="1" source="KdWxlv0j1vEyBBXF1PyD-14" target="KdWxlv0j1vEyBBXF1PyD-15">
          <mxGeometry relative="1" as="geometry" />
        </mxCell>
        <mxCell id="KdWxlv0j1vEyBBXF1PyD-43" style="edgeStyle=orthogonalEdgeStyle;rounded=0;orthogonalLoop=1;jettySize=auto;html=1;exitX=0.5;exitY=1;exitDx=0;exitDy=0;exitPerimeter=0;entryX=1;entryY=0.5;entryDx=0;entryDy=0;entryPerimeter=0;" edge="1" parent="1" source="KdWxlv0j1vEyBBXF1PyD-15" target="KdWxlv0j1vEyBBXF1PyD-20">
          <mxGeometry relative="1" as="geometry" />
        </mxCell>
        <mxCell id="KdWxlv0j1vEyBBXF1PyD-44" style="edgeStyle=orthogonalEdgeStyle;rounded=0;orthogonalLoop=1;jettySize=auto;html=1;exitX=0;exitY=0.5;exitDx=0;exitDy=0;exitPerimeter=0;entryX=1;entryY=0.5;entryDx=0;entryDy=0;entryPerimeter=0;" edge="1" parent="1" source="KdWxlv0j1vEyBBXF1PyD-4" target="KdWxlv0j1vEyBBXF1PyD-16">
          <mxGeometry relative="1" as="geometry" />
        </mxCell>
        <mxCell id="KdWxlv0j1vEyBBXF1PyD-45" value="NAO" style="edgeLabel;html=1;align=center;verticalAlign=middle;resizable=0;points=[];" vertex="1" connectable="0" parent="KdWxlv0j1vEyBBXF1PyD-44">
          <mxGeometry x="-0.0192" y="1" relative="1" as="geometry">
            <mxPoint as="offset" />
          </mxGeometry>
        </mxCell>
        <mxCell id="KdWxlv0j1vEyBBXF1PyD-50" style="edgeStyle=orthogonalEdgeStyle;rounded=0;orthogonalLoop=1;jettySize=auto;html=1;exitX=0;exitY=0.5;exitDx=0;exitDy=0;exitPerimeter=0;entryX=1;entryY=0.5;entryDx=0;entryDy=0;entryPerimeter=0;" edge="1" parent="1" source="KdWxlv0j1vEyBBXF1PyD-7" target="KdWxlv0j1vEyBBXF1PyD-19">
          <mxGeometry relative="1" as="geometry" />
        </mxCell>
        <mxCell id="KdWxlv0j1vEyBBXF1PyD-51" value="NAO" style="edgeLabel;html=1;align=center;verticalAlign=middle;resizable=0;points=[];" vertex="1" connectable="0" parent="KdWxlv0j1vEyBBXF1PyD-50">
          <mxGeometry x="-0.0404" y="-3" relative="1" as="geometry">
            <mxPoint as="offset" />
          </mxGeometry>
        </mxCell>
        <mxCell id="KdWxlv0j1vEyBBXF1PyD-52" style="edgeStyle=orthogonalEdgeStyle;rounded=0;orthogonalLoop=1;jettySize=auto;html=1;exitX=0.5;exitY=1;exitDx=0;exitDy=0;exitPerimeter=0;entryX=0.5;entryY=0;entryDx=0;entryDy=0;entryPerimeter=0;" edge="1" parent="1" source="KdWxlv0j1vEyBBXF1PyD-16" target="KdWxlv0j1vEyBBXF1PyD-17">
          <mxGeometry relative="1" as="geometry" />
        </mxCell>
        <mxCell id="KdWxlv0j1vEyBBXF1PyD-53" style="edgeStyle=orthogonalEdgeStyle;rounded=0;orthogonalLoop=1;jettySize=auto;html=1;exitX=0.5;exitY=1;exitDx=0;exitDy=0;exitPerimeter=0;entryX=0.5;entryY=0;entryDx=0;entryDy=0;entryPerimeter=0;" edge="1" parent="1" source="KdWxlv0j1vEyBBXF1PyD-17" target="KdWxlv0j1vEyBBXF1PyD-18">
          <mxGeometry relative="1" as="geometry" />
        </mxCell>
        <mxCell id="KdWxlv0j1vEyBBXF1PyD-54" style="edgeStyle=orthogonalEdgeStyle;rounded=0;orthogonalLoop=1;jettySize=auto;html=1;exitX=0.5;exitY=1;exitDx=0;exitDy=0;exitPerimeter=0;entryX=0.5;entryY=0;entryDx=0;entryDy=0;entryPerimeter=0;" edge="1" parent="1" source="KdWxlv0j1vEyBBXF1PyD-18" target="KdWxlv0j1vEyBBXF1PyD-19">
          <mxGeometry relative="1" as="geometry" />
        </mxCell>
        <mxCell id="KdWxlv0j1vEyBBXF1PyD-55" style="edgeStyle=orthogonalEdgeStyle;rounded=0;orthogonalLoop=1;jettySize=auto;html=1;exitX=0.5;exitY=1;exitDx=0;exitDy=0;exitPerimeter=0;entryX=0;entryY=0.5;entryDx=0;entryDy=0;entryPerimeter=0;" edge="1" parent="1" source="KdWxlv0j1vEyBBXF1PyD-19" target="KdWxlv0j1vEyBBXF1PyD-21">
          <mxGeometry relative="1" as="geometry" />
        </mxCell>
        <mxCell id="KdWxlv0j1vEyBBXF1PyD-56" style="edgeStyle=orthogonalEdgeStyle;rounded=0;orthogonalLoop=1;jettySize=auto;html=1;exitX=0.5;exitY=1;exitDx=0;exitDy=0;exitPerimeter=0;entryX=0;entryY=0.5;entryDx=0;entryDy=0;entryPerimeter=0;" edge="1" parent="1" source="KdWxlv0j1vEyBBXF1PyD-21" target="KdWxlv0j1vEyBBXF1PyD-22">
          <mxGeometry relative="1" as="geometry" />
        </mxCell>
        <mxCell id="KdWxlv0j1vEyBBXF1PyD-57" style="edgeStyle=orthogonalEdgeStyle;rounded=0;orthogonalLoop=1;jettySize=auto;html=1;exitX=0.5;exitY=1;exitDx=0;exitDy=0;exitPerimeter=0;entryX=1;entryY=0.5;entryDx=0;entryDy=0;entryPerimeter=0;" edge="1" parent="1" source="KdWxlv0j1vEyBBXF1PyD-20" target="KdWxlv0j1vEyBBXF1PyD-22">
          <mxGeometry relative="1" as="geometry" />
        </mxCell>
        <mxCell id="KdWxlv0j1vEyBBXF1PyD-58" style="edgeStyle=orthogonalEdgeStyle;rounded=0;orthogonalLoop=1;jettySize=auto;html=1;exitX=0.5;exitY=1;exitDx=0;exitDy=0;exitPerimeter=0;entryX=0.5;entryY=0;entryDx=0;entryDy=0;entryPerimeter=0;" edge="1" parent="1" source="KdWxlv0j1vEyBBXF1PyD-22" target="KdWxlv0j1vEyBBXF1PyD-2">
          <mxGeometry relative="1" as="geometry" />
        </mxCell>
      </root>
    </mxGraphModel>
  </diagram>
</mxfile>
